<?xml version="1.0" encoding="UTF-8" standalone="no"?>
<!DOCTYPE svg PUBLIC "-//W3C//DTD SVG 1.1//EN" "http://www.w3.org/Graphics/SVG/1.1/DTD/svg11.dtd">
<svg width="100%" height="100%" viewBox="0 0 1000 1000" version="1.1" xmlns="http://www.w3.org/2000/svg" xmlns:xlink="http://www.w3.org/1999/xlink" xml:space="preserve" xmlns:serif="http://www.serif.com/" style="fill-rule:evenodd;clip-rule:evenodd;stroke-linejoin:round;stroke-miterlimit:2;">
    <g>
        <path d="M1000,500C1000,775.958 775.958,1000 500,1000C224.042,1000 0,775.958 0,500C0,224.042 224.042,0 500,0C775.958,0 1000,224.042 1000,500Z" style="fill:white;"/>
        <g transform="matrix(3.45307,0,0,3.45307,-1910.82,-8296.7)">
            <g>
                <g transform="matrix(1,0,0,1,-69.3509,-2.27374e-13)">
                    <path d="M797.836,2614.2L832.236,2614.2L861.636,2480.8L827.236,2480.8L816.236,2530.6L760.836,2530.6L754.236,2560.6L809.636,2560.6L797.836,2614.2Z" style="fill:url(#_Linear1);fill-rule:nonzero;"/>
                </g>
                <g transform="matrix(1,0,0,1,-1.18887,-2.27374e-13)">
                    <path d="M620.036,2614.2L654.436,2614.2L677.036,2510.8L714.436,2510.8L721.036,2480.8L612.036,2480.8L605.236,2510.8L642.636,2510.8L620.036,2614.2Z" style="fill:url(#_Linear2);fill-rule:nonzero;"/>
                </g>
            </g>
            <g>
                <g transform="matrix(1,0,0,1,-69.3509,-2.27374e-13)">
                    <path d="M797.836,2614.2L832.236,2614.2L861.636,2480.8L827.236,2480.8L816.236,2530.6L760.836,2530.6L754.236,2560.6L809.636,2560.6L797.836,2614.2Z" style="fill:url(#_Linear3);fill-rule:nonzero;"/>
                </g>
                <g transform="matrix(1,0,0,1,-1.18887,-2.27374e-13)">
                    <path d="M620.036,2614.2L654.436,2614.2L677.036,2510.8L714.436,2510.8L721.036,2480.8L612.036,2480.8L605.236,2510.8L642.636,2510.8L620.036,2614.2Z" style="fill:url(#_Linear4);fill-rule:nonzero;"/>
                </g>
            </g>
        </g>
    </g>
    <defs>
        <linearGradient id="_Linear1" x1="0" y1="0" x2="1" y2="0" gradientUnits="userSpaceOnUse" gradientTransform="matrix(107.4,-163.853,203.519,133.4,754.236,2644.65)"><stop offset="0" style="stop-color:rgb(210,210,210);stop-opacity:1"/><stop offset="1" style="stop-color:rgb(70,70,70);stop-opacity:1"/></linearGradient>
        <linearGradient id="_Linear2" x1="0" y1="0" x2="1" y2="0" gradientUnits="userSpaceOnUse" gradientTransform="matrix(115.8,-133.4,153.675,133.4,605.236,2614.2)"><stop offset="0" style="stop-color:rgb(90,90,90);stop-opacity:1"/><stop offset="1" style="stop-color:black;stop-opacity:1"/></linearGradient>
        <linearGradient id="_Linear3" x1="0" y1="0" x2="1" y2="0" gradientUnits="userSpaceOnUse" gradientTransform="matrix(107.4,-163.853,203.519,133.4,754.236,2644.65)"><stop offset="0" style="stop-color:rgb(210,210,210);stop-opacity:1"/><stop offset="1" style="stop-color:rgb(70,70,70);stop-opacity:1"/></linearGradient>
        <linearGradient id="_Linear4" x1="0" y1="0" x2="1" y2="0" gradientUnits="userSpaceOnUse" gradientTransform="matrix(115.8,-133.4,153.675,133.4,605.236,2614.2)"><stop offset="0" style="stop-color:rgb(90,90,90);stop-opacity:1"/><stop offset="1" style="stop-color:black;stop-opacity:1"/></linearGradient>
    </defs>
</svg>
